<?xml version="1.0" encoding="UTF-8" standalone="no" ?>
<!DOCTYPE svg PUBLIC "-//W3C//DTD SVG 1.1//EN" "http://www.w3.org/Graphics/SVG/1.1/DTD/svg11.dtd">
<svg xmlns="http://www.w3.org/2000/svg" xmlns:xlink="http://www.w3.org/1999/xlink" version="1.1" width="1080" height="1080" viewBox="0 0 1080 1080" xml:space="preserve">
<desc>Created with Fabric.js 5.2.4</desc>
<defs>
</defs>
<rect x="0" y="0" width="100%" height="100%" fill="transparent"></rect>
<g transform="matrix(1 0 0 1 540 540)" id="5e36ea68-8f54-498c-bbd9-37a5190c3d0d"  >
<rect style="stroke: none; stroke-width: 1; stroke-dasharray: none; stroke-linecap: butt; stroke-dashoffset: 0; stroke-linejoin: miter; stroke-miterlimit: 4; fill: rgb(255,255,255); fill-rule: nonzero; opacity: 1;" vector-effect="non-scaling-stroke"  x="-540" y="-540" rx="0" ry="0" width="1080" height="1080" />
</g>
<g transform="matrix(1 0 0 1 540 540)" id="b1af9c19-7152-4783-8bc4-d5ff7436667e"  >
</g>
<g transform="matrix(20.72 0 0 17.68 542.5 496.74)" id="43d4fefa-9584-48a1-bbc2-3d7398b08867"  >
<path style="stroke: rgb(0,0,0); stroke-width: 5; stroke-dasharray: none; stroke-linecap: butt; stroke-dashoffset: 0; stroke-linejoin: miter; stroke-miterlimit: 4; fill: rgb(0,0,0); fill-rule: nonzero; opacity: 1;" vector-effect="non-scaling-stroke"  transform=" translate(-24.98, -25.5)" d="M 49.729 11 L 48.879 11 C 47.827999999999996 11 46.838 11.49 46.199 12.324 L 37.498999999999995 23.701 L 28.798999999999996 12.324 C 28.162 11.49 27.171 11 26.121 11 L 25.270999999999997 11 L 36.242 25.346 L 25.036 40 L 25.886000000000003 40 C 26.937 40 27.927000000000003 39.51 28.565 38.676 L 37.5 26.992 L 46.435 38.676 C 47.073 39.51 48.063 40 49.114 40 L 49.964 40 L 38.758 25.346 L 49.729 11 z M 21.289 34.242 C 18.735000000000003 38.123 13.707 40.111999999999995 8.900000000000002 38.358 C 4.671 36.815 2 32.611 2 28.109 L 2 27 L 14 27 L 14 27 L 25 27 L 25 22.866 C 25 16.361 20.182000000000002 10.666 13.705 10.057 C 6.273 9.358 0 15.21 0 22.5 L 0 28.073 C 0 33.444 3.215 38.437 8.269 40.256 C 14.872 42.632 21.817 39.086 24.165 33 C 24.165 33 24.165 33 24.165 33 L 23.526999999999997 33 C 22.616 33 21.789 33.481 21.289 34.242 z M 2 22.5 C 2 16.71 6.71 12 12.5 12 C 18.29 12 23 16.71 23 22.5 L 23 25 L 2 25 L 2 22.5 z" stroke-linecap="round" />
</g>
</svg>